<svg width="170" height="62" viewBox="0 0 170 62" fill="none" xmlns="http://www.w3.org/2000/svg">
<rect width="170" height="62" fill="white"/>
<path d="M30.224 37V24.4H32.528V37H30.224ZM34.9701 37V24.4H37.2741L43.1961 33.274V24.4H45.5001V37H43.1961L37.2741 28.144V37H34.9701ZM50.8768 37V26.254H47.2048V24.4H56.8708V26.254H53.1808V37H50.8768ZM58.5775 37V24.4H63.2035C64.2115 24.4 65.0395 24.574 65.6875 24.922C66.3475 25.258 66.8395 25.72 67.1635 26.308C67.4875 26.884 67.6495 27.526 67.6495 28.234C67.6495 29.002 67.4455 29.704 67.0375 30.34C66.6415 30.976 66.0175 31.438 65.1655 31.726L67.7755 37H65.1295L62.7895 32.032H60.8815V37H58.5775ZM60.8815 30.34H63.0595C63.8275 30.34 64.3915 30.154 64.7515 29.782C65.1115 29.41 65.2915 28.918 65.2915 28.306C65.2915 27.706 65.1115 27.226 64.7515 26.866C64.4035 26.506 63.8335 26.326 63.0415 26.326H60.8815V30.34ZM75.6964 37.216C74.4364 37.216 73.3324 36.94 72.3844 36.388C71.4484 35.836 70.7104 35.074 70.1704 34.102C69.6424 33.118 69.3784 31.984 69.3784 30.7C69.3784 29.416 69.6424 28.288 70.1704 27.316C70.7104 26.332 71.4484 25.564 72.3844 25.012C73.3324 24.46 74.4364 24.184 75.6964 24.184C76.9444 24.184 78.0424 24.46 78.9904 25.012C79.9384 25.564 80.6764 26.332 81.2044 27.316C81.7324 28.288 81.9964 29.416 81.9964 30.7C81.9964 31.984 81.7324 33.118 81.2044 34.102C80.6764 35.074 79.9384 35.836 78.9904 36.388C78.0424 36.94 76.9444 37.216 75.6964 37.216ZM75.6964 35.146C76.8964 35.146 77.8504 34.75 78.5584 33.958C79.2784 33.166 79.6384 32.08 79.6384 30.7C79.6384 29.32 79.2784 28.234 78.5584 27.442C77.8504 26.65 76.8964 26.254 75.6964 26.254C74.4964 26.254 73.5364 26.65 72.8164 27.442C72.0964 28.234 71.7364 29.32 71.7364 30.7C71.7364 32.08 72.0964 33.166 72.8164 33.958C73.5364 34.75 74.4964 35.146 75.6964 35.146ZM91.9737 37L87.3657 24.4H89.8317L93.3957 34.642L96.9777 24.4H99.4077L94.7997 37H91.9737ZM100.906 37V24.4H103.21V37H100.906ZM105.652 37V24.4H109.954C111.43 24.4 112.642 24.664 113.59 25.192C114.55 25.708 115.258 26.44 115.714 27.388C116.182 28.324 116.416 29.428 116.416 30.7C116.416 31.972 116.182 33.082 115.714 34.03C115.258 34.966 114.55 35.698 113.59 36.226C112.642 36.742 111.43 37 109.954 37H105.652ZM107.956 35.02H109.846C110.902 35.02 111.736 34.852 112.348 34.516C112.96 34.168 113.398 33.676 113.662 33.04C113.926 32.392 114.058 31.612 114.058 30.7C114.058 29.8 113.926 29.026 113.662 28.378C113.398 27.73 112.96 27.232 112.348 26.884C111.736 26.536 110.902 26.362 109.846 26.362H107.956V35.02ZM118.449 37V24.4H126.675V26.254H120.753V29.71H126.135V31.51H120.753V35.146H126.675V37H118.449ZM134.759 37.216C133.499 37.216 132.395 36.94 131.447 36.388C130.511 35.836 129.773 35.074 129.233 34.102C128.705 33.118 128.441 31.984 128.441 30.7C128.441 29.416 128.705 28.288 129.233 27.316C129.773 26.332 130.511 25.564 131.447 25.012C132.395 24.46 133.499 24.184 134.759 24.184C136.007 24.184 137.105 24.46 138.053 25.012C139.001 25.564 139.739 26.332 140.267 27.316C140.795 28.288 141.059 29.416 141.059 30.7C141.059 31.984 140.795 33.118 140.267 34.102C139.739 35.074 139.001 35.836 138.053 36.388C137.105 36.94 136.007 37.216 134.759 37.216ZM134.759 35.146C135.959 35.146 136.913 34.75 137.621 33.958C138.341 33.166 138.701 32.08 138.701 30.7C138.701 29.32 138.341 28.234 137.621 27.442C136.913 26.65 135.959 26.254 134.759 26.254C133.559 26.254 132.599 26.65 131.879 27.442C131.159 28.234 130.799 29.32 130.799 30.7C130.799 32.08 131.159 33.166 131.879 33.958C132.599 34.75 133.559 35.146 134.759 35.146Z" fill="#51586A"/>
</svg>
