<svg width="191" height="21" viewBox="0 0 191 21" fill="none" xmlns="http://www.w3.org/2000/svg">
<path d="M1.474 16V0.159999H3.806V6.848C4.17267 6.21733 4.67867 5.726 5.324 5.374C5.984 5.00733 6.71 4.824 7.502 4.824C8.80733 4.824 9.834 5.23467 10.582 6.056C11.33 6.87733 11.704 8.102 11.704 9.73V16H9.394V9.972C9.394 7.86 8.55067 6.804 6.864 6.804C5.984 6.804 5.25067 7.112 4.664 7.728C4.092 8.344 3.806 9.224 3.806 10.368V16H1.474ZM15.7706 3.02C15.3306 3.02 14.9639 2.888 14.6706 2.624C14.3919 2.34533 14.2526 2.00067 14.2526 1.59C14.2526 1.17933 14.3919 0.841999 14.6706 0.577999C14.9639 0.299333 15.3306 0.159999 15.7706 0.159999C16.2106 0.159999 16.5699 0.299333 16.8486 0.577999C17.1419 0.841999 17.2886 1.17933 17.2886 1.59C17.2886 2.00067 17.1419 2.34533 16.8486 2.624C16.5699 2.888 16.2106 3.02 15.7706 3.02ZM14.6046 16V5.088H16.9366V16H14.6046ZM28.155 20.532C26.5563 20.532 25.1557 20.224 23.953 19.608C22.765 18.992 21.8337 18.1193 21.159 16.99C20.499 15.8753 20.169 14.5553 20.169 13.03C20.169 11.4313 20.4477 9.95 21.005 8.586C21.5623 7.222 22.347 6.02667 23.359 5C24.371 3.97333 25.559 3.18133 26.923 2.624C28.287 2.052 29.783 1.766 31.411 1.766C33.083 1.766 34.5277 2.08133 35.745 2.712C36.9624 3.34267 37.901 4.22267 38.561 5.352C39.2357 6.48133 39.573 7.77933 39.573 9.246C39.573 10.1113 39.463 10.9547 39.243 11.776C39.023 12.5973 38.7003 13.338 38.275 13.998C37.8643 14.6433 37.351 15.164 36.735 15.56C36.1337 15.9413 35.437 16.132 34.645 16.132C33.897 16.132 33.3103 15.956 32.885 15.604C32.4743 15.2373 32.225 14.746 32.137 14.13C31.697 14.7607 31.1323 15.252 30.443 15.604C29.7683 15.956 29.0423 16.132 28.265 16.132C27.165 16.132 26.2997 15.802 25.669 15.142C25.053 14.4673 24.745 13.558 24.745 12.414C24.745 11.6073 24.8697 10.8373 25.119 10.104C25.3683 9.356 25.7277 8.696 26.197 8.124C26.6663 7.53733 27.2163 7.07533 27.847 6.738C28.4923 6.40067 29.2037 6.232 29.981 6.232C31.4037 6.232 32.335 6.79667 32.775 7.926L33.039 6.474H34.975L33.919 12.546C33.8163 13.1473 33.8383 13.6387 33.985 14.02C34.1317 14.3867 34.4617 14.57 34.975 14.57C35.4297 14.57 35.8257 14.4087 36.163 14.086C36.515 13.7633 36.801 13.3453 37.021 12.832C37.2557 12.3187 37.4317 11.7613 37.549 11.16C37.6663 10.544 37.725 9.94267 37.725 9.356C37.725 7.49333 37.1457 6.034 35.987 4.978C34.8283 3.90733 33.215 3.372 31.147 3.372C29.8417 3.372 28.6317 3.62133 27.517 4.12C26.4023 4.604 25.4343 5.27867 24.613 6.144C23.7917 6.99467 23.1537 7.992 22.699 9.136C22.2443 10.28 22.017 11.512 22.017 12.832C22.017 14.7533 22.5963 16.242 23.755 17.298C24.9137 18.3687 26.4977 18.904 28.507 18.904C29.1523 18.904 29.7903 18.838 30.421 18.706C31.0663 18.574 31.6677 18.3833 32.225 18.134L32.599 19.674C31.2497 20.246 29.7683 20.532 28.155 20.532ZM28.991 14.394C29.563 14.394 30.091 14.24 30.575 13.932C31.059 13.6093 31.455 13.1767 31.763 12.634C32.071 12.0767 32.2543 11.446 32.313 10.742C32.3863 9.97933 32.2397 9.32667 31.873 8.784C31.5063 8.24133 30.927 7.97 30.135 7.97C29.4603 7.97 28.8737 8.168 28.375 8.564C27.8763 8.96 27.495 9.466 27.231 10.082C26.967 10.698 26.835 11.3507 26.835 12.04C26.835 12.744 27.011 13.316 27.363 13.756C27.7297 14.1813 28.2723 14.394 28.991 14.394ZM46.377 16.264C45.453 16.264 44.6904 16.11 44.089 15.802C43.4877 15.494 43.0404 15.0907 42.747 14.592C42.4537 14.0787 42.307 13.5213 42.307 12.92C42.307 11.864 42.7177 11.028 43.539 10.412C44.3604 9.796 45.5337 9.488 47.059 9.488H49.919V9.29C49.919 8.43933 49.6844 7.80133 49.215 7.376C48.7604 6.95067 48.1664 6.738 47.433 6.738C46.7877 6.738 46.223 6.89933 45.739 7.222C45.2697 7.53 44.9837 7.992 44.881 8.608H42.549C42.6224 7.816 42.8864 7.14133 43.341 6.584C43.8104 6.012 44.397 5.57933 45.101 5.286C45.8197 4.978 46.6044 4.824 47.455 4.824C48.9804 4.824 50.161 5.22733 50.997 6.034C51.833 6.826 52.251 7.91133 52.251 9.29V16H50.227L50.029 14.13C49.721 14.7313 49.2737 15.2373 48.687 15.648C48.1004 16.0587 47.3304 16.264 46.377 16.264ZM46.839 14.372C47.4697 14.372 47.9977 14.2253 48.423 13.932C48.863 13.624 49.2004 13.2207 49.435 12.722C49.6844 12.2233 49.8384 11.6733 49.897 11.072H47.301C46.377 11.072 45.717 11.2333 45.321 11.556C44.9397 11.8787 44.749 12.282 44.749 12.766C44.749 13.2647 44.9324 13.6607 45.299 13.954C45.6804 14.2327 46.1937 14.372 46.839 14.372ZM54.9701 16V5.088H57.0601L57.2581 7.156C57.6394 6.43733 58.1674 5.87267 58.8421 5.462C59.5314 5.03667 60.3601 4.824 61.3281 4.824V7.266H60.6901C60.0448 7.266 59.4654 7.376 58.9521 7.596C58.4534 7.80133 58.0501 8.16067 57.7421 8.674C57.4488 9.17267 57.3021 9.86933 57.3021 10.764V16H54.9701ZM64.6475 3.02C64.2075 3.02 63.8408 2.888 63.5475 2.624C63.2688 2.34533 63.1295 2.00067 63.1295 1.59C63.1295 1.17933 63.2688 0.841999 63.5475 0.577999C63.8408 0.299333 64.2075 0.159999 64.6475 0.159999C65.0875 0.159999 65.4468 0.299333 65.7255 0.577999C66.0188 0.841999 66.1655 1.17933 66.1655 1.59C66.1655 2.00067 66.0188 2.34533 65.7255 2.624C65.4468 2.888 65.0875 3.02 64.6475 3.02ZM63.4815 16V5.088H65.8135V16H63.4815ZM69.442 16V7.046H67.88V5.088H69.442V3.504C69.442 2.316 69.7353 1.46533 70.322 0.952C70.9233 0.423999 71.7666 0.159999 72.852 0.159999H73.996V2.14H73.204C72.6906 2.14 72.324 2.25 72.104 2.47C71.884 2.67533 71.774 3.02733 71.774 3.526V5.088H74.282V7.046H71.774V16H69.442ZM76.7554 16.132C76.3154 16.132 75.9488 15.9927 75.6554 15.714C75.3768 15.4207 75.2374 15.076 75.2374 14.68C75.2374 14.2693 75.3768 13.9247 75.6554 13.646C75.9488 13.3527 76.3154 13.206 76.7554 13.206C77.1954 13.206 77.5548 13.3527 77.8334 13.646C78.1121 13.9247 78.2514 14.2693 78.2514 14.68C78.2514 15.076 78.1121 15.4207 77.8334 15.714C77.5548 15.9927 77.1954 16.132 76.7554 16.132ZM81.921 3.02C81.481 3.02 81.1143 2.888 80.821 2.624C80.5423 2.34533 80.403 2.00067 80.403 1.59C80.403 1.17933 80.5423 0.841999 80.821 0.577999C81.1143 0.299333 81.481 0.159999 81.921 0.159999C82.361 0.159999 82.7203 0.299333 82.999 0.577999C83.2923 0.841999 83.439 1.17933 83.439 1.59C83.439 2.00067 83.2923 2.34533 82.999 2.624C82.7203 2.888 82.361 3.02 81.921 3.02ZM80.755 16V5.088H83.087V16H80.755ZM86.1654 16V5.088H88.2334L88.4094 7.002C88.7467 6.32733 89.2381 5.79933 89.8834 5.418C90.5434 5.022 91.2987 4.824 92.1494 4.824C93.4694 4.824 94.5034 5.23467 95.2514 6.056C96.0141 6.87733 96.3954 8.102 96.3954 9.73V16H94.0854V9.972C94.0854 7.86 93.2201 6.804 91.4894 6.804C90.6241 6.804 89.9054 7.112 89.3334 7.728C88.7761 8.344 88.4974 9.224 88.4974 10.368V16H86.1654ZM103.718 16C102.647 16 101.797 15.7433 101.166 15.23C100.535 14.702 100.22 13.7707 100.22 12.436V7.046H98.35V5.088H100.22L100.506 2.316H102.552V5.088H105.632V7.046H102.552V12.436C102.552 13.0373 102.677 13.4553 102.926 13.69C103.19 13.91 103.637 14.02 104.268 14.02H105.522V16H103.718ZM112.861 16.264C111.791 16.264 110.837 16.0293 110.001 15.56C109.18 15.076 108.535 14.4087 108.065 13.558C107.596 12.7073 107.361 11.7173 107.361 10.588C107.361 9.444 107.589 8.43933 108.043 7.574C108.513 6.70867 109.158 6.034 109.979 5.55C110.815 5.066 111.783 4.824 112.883 4.824C113.954 4.824 114.885 5.066 115.677 5.55C116.469 6.01933 117.085 6.65 117.525 7.442C117.965 8.234 118.185 9.10667 118.185 10.06C118.185 10.2067 118.178 10.368 118.163 10.544C118.163 10.7053 118.156 10.8887 118.141 11.094H109.649C109.723 12.15 110.067 12.9567 110.683 13.514C111.314 14.0567 112.04 14.328 112.861 14.328C113.521 14.328 114.071 14.1813 114.511 13.888C114.966 13.58 115.303 13.1693 115.523 12.656H117.855C117.562 13.6827 116.975 14.5407 116.095 15.23C115.23 15.9193 114.152 16.264 112.861 16.264ZM112.861 6.738C112.084 6.738 111.395 6.97267 110.793 7.442C110.192 7.89667 109.825 8.586 109.693 9.51H115.853C115.809 8.65933 115.509 7.98467 114.951 7.486C114.394 6.98733 113.697 6.738 112.861 6.738ZM120.605 16V5.088H122.695L122.893 7.156C123.274 6.43733 123.802 5.87267 124.477 5.462C125.166 5.03667 125.995 4.824 126.963 4.824V7.266H126.325C125.68 7.266 125.1 7.376 124.587 7.596C124.088 7.80133 123.685 8.16067 123.377 8.674C123.084 9.17267 122.937 9.86933 122.937 10.764V16H120.605ZM132.658 16.264C131.734 16.264 130.972 16.11 130.37 15.802C129.769 15.494 129.322 15.0907 129.028 14.592C128.735 14.0787 128.588 13.5213 128.588 12.92C128.588 11.864 128.999 11.028 129.82 10.412C130.642 9.796 131.815 9.488 133.34 9.488H136.2V9.29C136.2 8.43933 135.966 7.80133 135.496 7.376C135.042 6.95067 134.448 6.738 133.714 6.738C133.069 6.738 132.504 6.89933 132.02 7.222C131.551 7.53 131.265 7.992 131.162 8.608H128.83C128.904 7.816 129.168 7.14133 129.622 6.584C130.092 6.012 130.678 5.57933 131.382 5.286C132.101 4.978 132.886 4.824 133.736 4.824C135.262 4.824 136.442 5.22733 137.278 6.034C138.114 6.826 138.532 7.91133 138.532 9.29V16H136.508L136.31 14.13C136.002 14.7313 135.555 15.2373 134.968 15.648C134.382 16.0587 133.612 16.264 132.658 16.264ZM133.12 14.372C133.751 14.372 134.279 14.2253 134.704 13.932C135.144 13.624 135.482 13.2207 135.716 12.722C135.966 12.2233 136.12 11.6733 136.178 11.072H133.582C132.658 11.072 131.998 11.2333 131.602 11.556C131.221 11.8787 131.03 12.282 131.03 12.766C131.03 13.2647 131.214 13.6607 131.58 13.954C131.962 14.2327 132.475 14.372 133.12 14.372ZM146.421 16.264C145.351 16.264 144.39 16.022 143.539 15.538C142.703 15.054 142.043 14.3867 141.559 13.536C141.09 12.6707 140.855 11.6733 140.855 10.544C140.855 9.41467 141.09 8.42467 141.559 7.574C142.043 6.70867 142.703 6.034 143.539 5.55C144.39 5.066 145.351 4.824 146.421 4.824C147.771 4.824 148.9 5.176 149.809 5.88C150.733 6.584 151.327 7.53733 151.591 8.74H149.149C149.003 8.13867 148.68 7.66933 148.181 7.332C147.683 6.99467 147.096 6.826 146.421 6.826C145.849 6.826 145.321 6.97267 144.837 7.266C144.353 7.54467 143.965 7.96267 143.671 8.52C143.378 9.06267 143.231 9.73733 143.231 10.544C143.231 11.3507 143.378 12.0327 143.671 12.59C143.965 13.1327 144.353 13.5507 144.837 13.844C145.321 14.1373 145.849 14.284 146.421 14.284C147.096 14.284 147.683 14.1153 148.181 13.778C148.68 13.4407 149.003 12.964 149.149 12.348H151.591C151.342 13.5213 150.755 14.4673 149.831 15.186C148.907 15.9047 147.771 16.264 146.421 16.264ZM158.482 16C157.411 16 156.56 15.7433 155.93 15.23C155.299 14.702 154.984 13.7707 154.984 12.436V7.046H153.114V5.088H154.984L155.27 2.316H157.316V5.088H160.396V7.046H157.316V12.436C157.316 13.0373 157.44 13.4553 157.69 13.69C157.954 13.91 158.401 14.02 159.032 14.02H160.286V16H158.482ZM164.12 3.02C163.68 3.02 163.314 2.888 163.02 2.624C162.742 2.34533 162.602 2.00067 162.602 1.59C162.602 1.17933 162.742 0.841999 163.02 0.577999C163.314 0.299333 163.68 0.159999 164.12 0.159999C164.56 0.159999 164.92 0.299333 165.198 0.577999C165.492 0.841999 165.638 1.17933 165.638 1.59C165.638 2.00067 165.492 2.34533 165.198 2.624C164.92 2.888 164.56 3.02 164.12 3.02ZM162.954 16V5.088H165.286V16H162.954ZM171.423 16L167.331 5.088H169.773L172.809 13.778L175.845 5.088H178.265L174.195 16H171.423ZM184.726 16.264C183.656 16.264 182.702 16.0293 181.866 15.56C181.045 15.076 180.4 14.4087 179.93 13.558C179.461 12.7073 179.226 11.7173 179.226 10.588C179.226 9.444 179.454 8.43933 179.908 7.574C180.378 6.70867 181.023 6.034 181.844 5.55C182.68 5.066 183.648 4.824 184.748 4.824C185.819 4.824 186.75 5.066 187.542 5.55C188.334 6.01933 188.95 6.65 189.39 7.442C189.83 8.234 190.05 9.10667 190.05 10.06C190.05 10.2067 190.043 10.368 190.028 10.544C190.028 10.7053 190.021 10.8887 190.006 11.094H181.514C181.588 12.15 181.932 12.9567 182.548 13.514C183.179 14.0567 183.905 14.328 184.726 14.328C185.386 14.328 185.936 14.1813 186.376 13.888C186.831 13.58 187.168 13.1693 187.388 12.656H189.72C189.427 13.6827 188.84 14.5407 187.96 15.23C187.095 15.9193 186.017 16.264 184.726 16.264ZM184.726 6.738C183.949 6.738 183.26 6.97267 182.658 7.442C182.057 7.89667 181.69 8.586 181.558 9.51H187.718C187.674 8.65933 187.374 7.98467 186.816 7.486C186.259 6.98733 185.562 6.738 184.726 6.738Z" fill="#080415"/>
<path d="M0 18.75H190.996V19.85H0V18.75Z" fill="#080415"/>
</svg>
